<svg xmlns="http://www.w3.org/2000/svg" xmlns:xlink="http://www.w3.org/1999/xlink" xmlns:lucid="lucid" width="1081.5" height="575.65"><g transform="translate(-379.25 -119.10044642857147)" lucid:page-tab-id="0_0"><path d="M760 130.3a10 10 0 0 1 10-10h300a10 10 0 0 1 10 10v274a10 10 0 0 1-10 10H770a10 10 0 0 1-10-10z" fill="#fff"/><path d="M760 130.3a10 10 0 0 1 10-10h300a10 10 0 0 1 10 10v30H760z" fill="#dfe3e8"/><path d="M760 160.3h320v31H760z" fill="#fff"/><path d="M760 190.3h320v33H760z" fill="#f2f3f5"/><path d="M760 222.3h320v33H760z" fill="#fff"/><path d="M760 254.3h320v33H760z" fill="#f2f3f5"/><path d="M760 286.3h320v33H760z" fill="#fff"/><path d="M760 318.3h320v33H760z" fill="#f2f3f5"/><path d="M760 350.3h320v33H760z" fill="#fff"/><path d="M760 382.3h320v22a10 10 0 0 1-10 10H770a10 10 0 0 1-10-10z" fill="#f2f3f5"/><path d="M760.75 160.3h318.5-318.5zM760 130.3a10 10 0 0 1 10-10h300a10 10 0 0 1 10 10v274a10 10 0 0 1-10 10H770a10 10 0 0 1-10-10zM843.1 161.05v252.5zM997.95 161.05v252.5z" stroke="#6f7681" stroke-width="1.5" fill="none"/><use xlink:href="#a" transform="matrix(1,0,0,1,770,120.30312500000002) translate(120.1220703125 27.275390625)"/><use xlink:href="#b" transform="matrix(1,0,0,1,765,162.80312500000002) translate(26.03072265625 18.589501953125)"/><use xlink:href="#c" transform="matrix(1,0,0,1,848.102975065522,162.80312500000002) translate(0 18.589501953125)"/><use xlink:href="#d" transform="matrix(1,0,0,1,1002.9500464759315,162.80312500000002) translate(0 18.589501953125)"/><use xlink:href="#e" transform="matrix(1,0,0,1,848.102975065522,192.80312500000002) translate(0 19.589501953125)"/><use xlink:href="#d" transform="matrix(1,0,0,1,1002.9500464759315,192.80312500000002) translate(0 19.589501953125)"/><use xlink:href="#f" transform="matrix(1,0,0,1,848.102975065522,224.80312500000002) translate(0 19.589501953125)"/><use xlink:href="#d" transform="matrix(1,0,0,1,1002.9500464759315,224.80312500000002) translate(0 19.589501953125)"/><use xlink:href="#g" transform="matrix(1,0,0,1,848.102975065522,256.803125) translate(0 19.589501953125)"/><use xlink:href="#d" transform="matrix(1,0,0,1,1002.9500464759315,256.803125) translate(0 19.589501953125)"/><use xlink:href="#h" transform="matrix(1,0,0,1,848.102975065522,288.803125) translate(0 19.589501953125)"/><use xlink:href="#d" transform="matrix(1,0,0,1,1002.9500464759315,288.803125) translate(0 19.589501953125)"/><use xlink:href="#i" transform="matrix(1,0,0,1,848.102975065522,320.803125) translate(0 19.589501953125)"/><use xlink:href="#d" transform="matrix(1,0,0,1,1002.9500464759315,320.803125) translate(0 19.589501953125)"/><use xlink:href="#j" transform="matrix(1,0,0,1,848.102975065522,352.803125) translate(0 19.589501953125)"/><use xlink:href="#d" transform="matrix(1,0,0,1,1002.9500464759315,352.803125) translate(0 19.589501953125)"/><use xlink:href="#k" transform="matrix(1,0,0,1,848.102975065522,384.803125) translate(0 19.589501953125)"/><use xlink:href="#d" transform="matrix(1,0,0,1,1002.9500464759315,384.803125) translate(0 19.589501953125)"/><path d="M760 447.15a10 10 0 0 1 10-10h300a10 10 0 0 1 10 10v80a10 10 0 0 1-10 10H770a10 10 0 0 1-10-10z" fill="#fff"/><path d="M760 447.15a10 10 0 0 1 10-10h300a10 10 0 0 1 10 10v30H760z" fill="#dfe3e8"/><path d="M760 477.15h320v31H760z" fill="#fff"/><path d="M760 507.15h320v20a10 10 0 0 1-10 10H770a10 10 0 0 1-10-10z" fill="#f2f3f5"/><path d="M760.75 477.15h318.5-318.5zM760 447.15a10 10 0 0 1 10-10h300a10 10 0 0 1 10 10v80a10 10 0 0 1-10 10H770a10 10 0 0 1-10-10zM842.6 477.9v58.5zM999.5 477.9v58.5z" stroke="#6f7681" stroke-width="1.5" fill="none"/><use xlink:href="#l" transform="matrix(1,0,0,1,770,437.1515625) translate(78.876953125 27.275390625)"/><use xlink:href="#m" transform="matrix(1,0,0,1,765,479.6515625) translate(10.200708007812498 18.589501953125)"/><use xlink:href="#n" transform="matrix(1,0,0,1,765,479.6515625) translate(41.669946289062494 18.589501953125)"/><use xlink:href="#o" transform="matrix(1,0,0,1,847.585395567326,479.6515625) translate(0 18.589501953125)"/><use xlink:href="#d" transform="matrix(1,0,0,1,1004.5073689031434,479.6515625) translate(0 18.589501953125)"/><use xlink:href="#m" transform="matrix(1,0,0,1,765,509.6515625) translate(10.200708007812498 18.589501953125)"/><use xlink:href="#n" transform="matrix(1,0,0,1,765,509.6515625) translate(41.669946289062494 18.589501953125)"/><use xlink:href="#p" transform="matrix(1,0,0,1,847.585395567326,509.6515625) translate(0 18.589501953125)"/><use xlink:href="#d" transform="matrix(1,0,0,1,1004.5073689031434,509.6515625) translate(0 18.589501953125)"/><path d="M760 570a10 10 0 0 1 10-10h300a10 10 0 0 1 10 10v114a10 10 0 0 1-10 10H770a10 10 0 0 1-10-10z" fill="#fff"/><path d="M760 570a10 10 0 0 1 10-10h300a10 10 0 0 1 10 10v30H760z" fill="#dfe3e8"/><path d="M760 600h320v31H760z" fill="#fff"/><path d="M760 630h320v33H760z" fill="#f2f3f5"/><path d="M760 662h320v22a10 10 0 0 1-10 10H770a10 10 0 0 1-10-10z" fill="#fff"/><path d="M760.75 600h318.5-318.5zM760 570a10 10 0 0 1 10-10h300a10 10 0 0 1 10 10v114a10 10 0 0 1-10 10H770a10 10 0 0 1-10-10zM842.18 600.75v92.5zM997.95 600.75v92.5z" stroke="#6f7681" stroke-width="1.5" fill="none"/><use xlink:href="#q" transform="matrix(1,0,0,1,770,560) translate(113.515625 27.275390625)"/><use xlink:href="#b" transform="matrix(1,0,0,1,765,602.5) translate(25.53072265625 18.589501953125)"/><use xlink:href="#c" transform="matrix(1,0,0,1,847.1775052795005,602.5) translate(0 18.589501953125)"/><use xlink:href="#d" transform="matrix(1,0,0,1,1002.9500464759315,602.5) translate(0 18.589501953125)"/><use xlink:href="#e" transform="matrix(1,0,0,1,847.1775052795005,632.5) translate(0 19.589501953125)"/><use xlink:href="#d" transform="matrix(1,0,0,1,1002.9500464759315,632.5) translate(0 19.589501953125)"/><use xlink:href="#g" transform="matrix(1,0,0,1,847.1775052795005,664.5) translate(0 19.589501953125)"/><use xlink:href="#d" transform="matrix(1,0,0,1,1002.9500464759315,664.5) translate(0 19.589501953125)"/><path d="M739.25 174.87h-8a12 12 0 0 0-12 12v293.3a12 12 0 0 0 12 12h8M759.25 174.87h-20m10-10v20m-10-20v20M758.9 492.18h-20m20-10l-20 10m20 10l-20-10m0-10v20M739.25 614.94h-8a12 12 0 0 1-12-12v-68.62a12 12 0 0 1 12-12h8M759.25 614.94h-20m10-10v20m-10-20v20M758.9 522.32h-20m20-10l-20 10m20 10l-20-10m0-10v20" stroke="#6f7681" stroke-width="1.5" fill="none"/><path d="M380 129.85a10 10 0 0 1 10-10h260a10 10 0 0 1 10 10v82a10 10 0 0 1-10 10H390a10 10 0 0 1-10-10z" fill="#fff"/><path d="M380 129.85a10 10 0 0 1 10-10h260a10 10 0 0 1 10 10v30H380z" fill="#dfe3e8"/><path d="M380 159.85h280v31H380z" fill="#fff"/><path d="M380 189.85h280v22a10 10 0 0 1-10 10H390a10 10 0 0 1-10-10z" fill="#f2f3f5"/><path d="M380.75 159.85h278.5-278.5zM380 129.85a10 10 0 0 1 10-10h260a10 10 0 0 1 10 10v82a10 10 0 0 1-10 10H390a10 10 0 0 1-10-10zM454.55 160.6v60.5zM577.36 160.6v60.5z" stroke="#6f7681" stroke-width="1.5" fill="none"/><use xlink:href="#r" transform="matrix(1,0,0,1,390,119.85044642857147) translate(102.8271484375 27.275390625)"/><use xlink:href="#m" transform="matrix(1,0,0,1,385,162.35044642857147) translate(6.200708007812498 18.589501953125)"/><use xlink:href="#n" transform="matrix(1,0,0,1,385,162.35044642857147) translate(37.669946289062494 18.589501953125)"/><use xlink:href="#o" transform="matrix(1,0,0,1,459.5477431738704,162.35044642857147) translate(0 18.589501953125)"/><use xlink:href="#d" transform="matrix(1,0,0,1,582.3578375128369,162.35044642857147) translate(0 18.589501953125)"/><use xlink:href="#s" transform="matrix(1,0,0,1,459.5477431738704,192.35044642857147) translate(0 19.589501953125)"/><use xlink:href="#d" transform="matrix(1,0,0,1,582.3578375128369,192.35044642857147) translate(0 19.589501953125)"/><path d="M739.25 174.87h-58.5M759.25 174.87h-20m10-10v20m-10-20v20M660.75 174.87h20m-10 10v-20m10 20v-20" stroke="#6f7681" stroke-width="1.5" fill="none"/><path d="M1180 129.85a10 10 0 0 1 10-10h260a10 10 0 0 1 10 10v114a10 10 0 0 1-10 10h-260a10 10 0 0 1-10-10z" fill="#fff"/><path d="M1180 129.85a10 10 0 0 1 10-10h260a10 10 0 0 1 10 10v30h-280z" fill="#dfe3e8"/><path d="M1180 159.85h280v31h-280z" fill="#fff"/><path d="M1180 189.85h280v33h-280z" fill="#f2f3f5"/><path d="M1180 221.85h280v22a10 10 0 0 1-10 10h-260a10 10 0 0 1-10-10z" fill="#fff"/><path d="M1180.75 159.85h278.5-278.5zM1180 129.85a10 10 0 0 1 10-10h260a10 10 0 0 1 10 10v114a10 10 0 0 1-10 10h-260a10 10 0 0 1-10-10zM1254.55 160.6v92.5zM1377.36 160.6v92.5z" stroke="#6f7681" stroke-width="1.5" fill="none"/><use xlink:href="#t" transform="matrix(1,0,0,1,1190,119.85044642857147) translate(84.5751953125 27.275390625)"/><use xlink:href="#m" transform="matrix(1,0,0,1,1185,162.35044642857147) translate(6.200708007812498 18.589501953125)"/><use xlink:href="#n" transform="matrix(1,0,0,1,1185,162.35044642857147) translate(37.669946289062494 18.589501953125)"/><use xlink:href="#o" transform="matrix(1,0,0,1,1259.5477431738705,162.35044642857147) translate(0 18.589501953125)"/><use xlink:href="#d" transform="matrix(1,0,0,1,1382.3578375128368,162.35044642857147) translate(0 18.589501953125)"/><use xlink:href="#u" transform="matrix(1,0,0,1,1259.5477431738705,192.35044642857147) translate(0 19.589501953125)"/><use xlink:href="#d" transform="matrix(1,0,0,1,1382.3578375128368,192.35044642857147) translate(0 19.589501953125)"/><use xlink:href="#v" transform="matrix(1,0,0,1,1259.5477431738705,224.35044642857147) translate(0 19.589501953125)"/><use xlink:href="#d" transform="matrix(1,0,0,1,1382.3578375128368,224.35044642857147) translate(0 19.589501953125)"/><path d="M1159.25 174.85H1130v.02h-29.25M1179.25 174.85h-20m10-10v20m-10-20v20M1081.1 174.87h20m-20 10l20-10m-20-10l20 10m0 10v-20" stroke="#6f7681" stroke-width="1.5" fill="none"/><defs><path d="M572 22C302 22 117-98 78-306l279-48c29 105 101 156 224 156 114 0 185-48 185-115 0-118-228-130-337-155-215-49-322-150-322-317 0-215 187-347 470-347 265 0 424 116 466 298l-266 47c-24-76-87-130-196-130-98 0-174 46-174 113 0 56 38 95 144 117l201 40c216 44 320 143 320 302 0 220-207 367-500 367" id="w"/><path d="M628 22C291 22 81-210 81-554c0-346 210-578 547-578 336 0 547 232 547 578 0 344-211 576-547 576zm0-236c160 0 242-146 242-341 0-197-82-341-242-341S387-753 387-555c0 195 81 341 241 341" id="x"/><path d="M428-647V0H128v-1118h283l4 231c63-156 176-245 348-245 232 0 384 159 384 421V0H847v-659c0-139-76-222-202-222-128 0-217 86-217 234" id="y"/><path d="M625 442c-280 0-454-114-503-274l258-72c28 63 97 128 243 128 153 0 246-69 246-216v-206h-23C805-108 717-16 536-16 284-16 81-191 81-561c0-378 208-571 456-571 188 0 280 113 321 202h13v-188h295V-9c0 303-226 451-541 451zm5-686c153 0 240-119 240-319 0-198-86-329-240-329-158 0-241 137-241 329 0 195 85 319 241 319" id="z"/><g id="a"><use transform="matrix(0.009765625,0,0,0.009765625,0,0)" xlink:href="#w"/><use transform="matrix(0.009765625,0,0,0.009765625,11.201171875,0)" xlink:href="#x"/><use transform="matrix(0.009765625,0,0,0.009765625,23.466796875,0)" xlink:href="#y"/><use transform="matrix(0.009765625,0,0,0.009765625,35.91796875,0)" xlink:href="#z"/><use transform="matrix(0.009765625,0,0,0.009765625,48.5546875,0)" xlink:href="#w"/></g><path d="M180 0v-1490h510c348 0 508 209 508 474 0 266-160 477-507 477H370V0H180zm190-706h312c236 0 327-133 327-310 0-176-91-307-329-307H370v617" id="A"/><path d="M180 0v-1490h190c0 262 1 526-3 784 217-279 467-523 702-784h249L716-845 1319 0h-225L585-716 370-489V0H180" id="B"/><g id="b"><use transform="matrix(0.008173828125000001,0,0,0.008173828125000001,0,0)" xlink:href="#A"/><use transform="matrix(0.008173828125000001,0,0,0.008173828125000001,10.691367187500001,0)" xlink:href="#B"/></g><path d="M158 0v-1118h180V0H158zm91-1301c-68 0-125-53-125-119s57-119 125-119c69 0 126 53 126 119s-57 119-126 119" id="C"/><path d="M577 24c-279 0-473-224-473-580 0-354 195-576 474-576 218 0 287 134 324 193h14v-551h180V0H922v-173h-20C865-111 790 24 577 24zm27-161c203 0 314-172 314-421 0-247-108-413-314-413-212 0-317 181-317 413 0 235 108 421 317 421" id="D"/><g id="c"><use transform="matrix(0.008173828125000001,0,0,0.008173828125000001,0,0)" xlink:href="#C"/><use transform="matrix(0.008173828125000001,0,0,0.008173828125000001,4.05421875,0)" xlink:href="#D"/></g><path d="M657 26c-323 0-524-166-541-416h195c15 169 171 246 346 246 202 0 356-106 356-265 5-203-294-238-475-293-239-73-380-191-380-389 0-252 224-419 512-419 294 0 499 171 508 396H992c-17-145-151-228-328-228-193 0-321 102-321 242 0 156 175 211 284 241l149 41c160 44 422 134 422 412 0 244-197 432-541 432" id="E"/><path d="M598-1118v154H368v674c0 100 37 144 132 144 23 0 62-6 92-12L629-6c-37 13-88 20-134 20-193 0-307-107-307-290v-688H20v-154h168v-266h180v266h230" id="F"/><path d="M158 0v-1118h174v172h12c41-113 157-188 290-188 26 0 70 2 91 3v181c-11-2-60-10-108-10-161 0-279 109-279 260V0H158" id="G"/><path d="M338-670V0H158v-1118h173l1 207c72-158 192-221 342-221 226 0 378 139 378 422V0H872v-695c0-172-96-275-252-275-161 0-282 109-282 300" id="H"/><path d="M611 442c-248 0-391-105-460-228l146-94c47 65 117 165 314 165 178 0 307-82 307-266v-224h-17C863-141 792-18 576-18c-268 0-472-195-472-546 0-346 197-568 476-568 216 0 288 133 326 193h17v-179h175V29c0 289-215 413-487 413zm-5-620c203 0 314-146 314-390 0-237-108-403-314-403-213 0-319 180-319 403 0 230 109 390 319 390" id="I"/><g id="d"><use transform="matrix(0.008173828125000001,0,0,0.008173828125000001,0,0)" xlink:href="#E"/><use transform="matrix(0.008173828125000001,0,0,0.008173828125000001,10.740410156250002,0)" xlink:href="#F"/><use transform="matrix(0.008173828125000001,0,0,0.008173828125000001,16.216875,0)" xlink:href="#G"/><use transform="matrix(0.008173828125000001,0,0,0.008173828125000001,22.780458984375002,0)" xlink:href="#C"/><use transform="matrix(0.008173828125000001,0,0,0.008173828125000001,26.834677734375003,0)" xlink:href="#H"/><use transform="matrix(0.008173828125000001,0,0,0.008173828125000001,36.725009765625,0)" xlink:href="#I"/></g><path d="M471 26C259 26 90-98 90-318c0-256 228-303 435-329 202-27 287-16 287-108 0-139-79-219-234-219-161 0-248 86-283 164l-173-57c86-203 278-265 451-265 150 0 419 46 419 395V0H815v-152h-12C765-73 660 26 471 26zm31-159c199 0 310-134 310-271v-155c-30 35-226 55-295 64-131 17-246 59-246 186 0 116 97 176 231 176" id="J"/><path d="M158 0v-1118h175l1 205c55-151 181-225 313-225 147 0 245 90 285 228 53-141 190-228 352-228 194 0 352 125 352 384V0h-181v-749c0-161-105-225-225-225-151 0-243 103-243 244V0H807v-767c0-124-93-207-219-207-131 0-250 92-250 270V0H158" id="K"/><path d="M628 24c-324 0-524-230-524-574 0-343 198-582 503-582 237 0 487 146 487 559v75H286c9 234 145 362 343 362 132 0 231-58 273-172l174 48C1024-91 857 24 628 24zM287-650h624c-17-190-120-322-304-322-192 0-309 151-320 322" id="L"/><g id="e"><use transform="matrix(0.008173828125000001,0,0,0.008173828125000001,0,0)" xlink:href="#H"/><use transform="matrix(0.008173828125000001,0,0,0.008173828125000001,9.89033203125,0)" xlink:href="#J"/><use transform="matrix(0.008173828125000001,0,0,0.008173828125000001,19.290234375000004,0)" xlink:href="#K"/><use transform="matrix(0.008173828125000001,0,0,0.008173828125000001,33.95408203125001,0)" xlink:href="#L"/></g><path d="M537 14c-226 0-379-139-379-422v-710h180v695c0 172 97 275 253 275 160 0 281-109 281-300v-670h181V0H879v-209C806-46 684 14 537 14" id="M"/><g id="f"><use transform="matrix(0.008173828125000001,0,0,0.008173828125000001,0,0)" xlink:href="#M"/><use transform="matrix(0.008173828125000001,0,0,0.008173828125000001,9.898505859375001,0)" xlink:href="#G"/><use transform="matrix(0.008173828125000001,0,0,0.008173828125000001,16.46208984375,0)" xlink:href="#C"/></g><path d="M65 0l393-574-370-544h210c88 136 192 297 267 435 67-142 176-302 264-435h206L661-564 1053 0H844c-94-144-206-310-287-458C484-308 366-142 273 0H65" id="N"/><path d="M338-1490V0H158v-1490h180" id="O"/><path d="M934 0v166H0V0h934" id="P"/><g id="g"><use transform="matrix(0.008173828125000001,0,0,0.008173828125000001,0,0)" xlink:href="#L"/><use transform="matrix(0.008173828125000001,0,0,0.008173828125000001,9.383554687500002,0)" xlink:href="#N"/><use transform="matrix(0.008173828125000001,0,0,0.008173828125000001,18.84884765625,0)" xlink:href="#F"/><use transform="matrix(0.008173828125000001,0,0,0.008173828125000001,24.1618359375,0)" xlink:href="#L"/><use transform="matrix(0.008173828125000001,0,0,0.008173828125000001,33.92138671875,0)" xlink:href="#G"/><use transform="matrix(0.008173828125000001,0,0,0.008173828125000001,40.484970703125,0)" xlink:href="#H"/><use transform="matrix(0.008173828125000001,0,0,0.008173828125000001,50.375302734375,0)" xlink:href="#J"/><use transform="matrix(0.008173828125000001,0,0,0.008173828125000001,59.775205078125,0)" xlink:href="#O"/><use transform="matrix(0.008173828125000001,0,0,0.008173828125000001,63.829423828125,0)" xlink:href="#P"/><use transform="matrix(0.008173828125000001,0,0,0.008173828125000001,71.463779296875,0)" xlink:href="#M"/><use transform="matrix(0.008173828125000001,0,0,0.008173828125000001,81.36228515625001,0)" xlink:href="#G"/><use transform="matrix(0.008173828125000001,0,0,0.008173828125000001,87.92586914062501,0)" xlink:href="#O"/></g><path d="M677 24c-213 0-288-135-325-197h-20V0H158v-1490h180v551h14c37-59 106-193 324-193 279 0 474 222 474 576 0 356-194 580-473 580zm-27-161c209 0 317-186 317-421 0-232-105-413-317-413-206 0-314 166-314 413 0 249 111 421 314 421" id="Q"/><g id="h"><use transform="matrix(0.008173828125000001,0,0,0.008173828125000001,0,0)" xlink:href="#J"/><use transform="matrix(0.008173828125000001,0,0,0.008173828125000001,9.399902343750002,0)" xlink:href="#O"/><use transform="matrix(0.008173828125000001,0,0,0.008173828125000001,13.454121093750002,0)" xlink:href="#Q"/><use transform="matrix(0.008173828125000001,0,0,0.008173828125000001,23.704101562500004,0)" xlink:href="#M"/><use transform="matrix(0.008173828125000001,0,0,0.008173828125000001,33.60260742187501,0)" xlink:href="#K"/><use transform="matrix(0.008173828125000001,0,0,0.008173828125000001,48.266455078125006,0)" xlink:href="#P"/><use transform="matrix(0.008173828125000001,0,0,0.008173828125000001,56.464804687500006,0)" xlink:href="#C"/><use transform="matrix(0.008173828125000001,0,0,0.008173828125000001,60.51902343750001,0)" xlink:href="#D"/></g><g id="i"><use transform="matrix(0.008173828125000001,0,0,0.008173828125000001,0,0)" xlink:href="#J"/><use transform="matrix(0.008173828125000001,0,0,0.008173828125000001,9.399902343750002,0)" xlink:href="#O"/><use transform="matrix(0.008173828125000001,0,0,0.008173828125000001,13.454121093750002,0)" xlink:href="#Q"/><use transform="matrix(0.008173828125000001,0,0,0.008173828125000001,23.704101562500004,0)" xlink:href="#M"/><use transform="matrix(0.008173828125000001,0,0,0.008173828125000001,33.60260742187501,0)" xlink:href="#K"/><use transform="matrix(0.008173828125000001,0,0,0.008173828125000001,48.266455078125006,0)" xlink:href="#P"/><use transform="matrix(0.008173828125000001,0,0,0.008173828125000001,56.464804687500006,0)" xlink:href="#H"/><use transform="matrix(0.008173828125000001,0,0,0.008173828125000001,66.35513671875,0)" xlink:href="#J"/><use transform="matrix(0.008173828125000001,0,0,0.008173828125000001,75.7550390625,0)" xlink:href="#K"/><use transform="matrix(0.008173828125000001,0,0,0.008173828125000001,90.41888671875,0)" xlink:href="#L"/></g><g id="j"><use transform="matrix(0.008173828125000001,0,0,0.008173828125000001,0,0)" xlink:href="#J"/><use transform="matrix(0.008173828125000001,0,0,0.008173828125000001,9.399902343750002,0)" xlink:href="#O"/><use transform="matrix(0.008173828125000001,0,0,0.008173828125000001,13.454121093750002,0)" xlink:href="#Q"/><use transform="matrix(0.008173828125000001,0,0,0.008173828125000001,23.704101562500004,0)" xlink:href="#M"/><use transform="matrix(0.008173828125000001,0,0,0.008173828125000001,33.60260742187501,0)" xlink:href="#K"/><use transform="matrix(0.008173828125000001,0,0,0.008173828125000001,48.266455078125006,0)" xlink:href="#P"/><use transform="matrix(0.008173828125000001,0,0,0.008173828125000001,55.90081054687501,0)" xlink:href="#M"/><use transform="matrix(0.008173828125000001,0,0,0.008173828125000001,65.79931640625001,0)" xlink:href="#G"/><use transform="matrix(0.008173828125000001,0,0,0.008173828125000001,72.36290039062501,0)" xlink:href="#O"/></g><g id="k"><use transform="matrix(0.008173828125000001,0,0,0.008173828125000001,0,0)" xlink:href="#J"/><use transform="matrix(0.008173828125000001,0,0,0.008173828125000001,9.399902343750002,0)" xlink:href="#O"/><use transform="matrix(0.008173828125000001,0,0,0.008173828125000001,13.454121093750002,0)" xlink:href="#Q"/><use transform="matrix(0.008173828125000001,0,0,0.008173828125000001,23.704101562500004,0)" xlink:href="#M"/><use transform="matrix(0.008173828125000001,0,0,0.008173828125000001,33.60260742187501,0)" xlink:href="#K"/><use transform="matrix(0.008173828125000001,0,0,0.008173828125000001,48.266455078125006,0)" xlink:href="#P"/><use transform="matrix(0.008173828125000001,0,0,0.008173828125000001,56.464804687500006,0)" xlink:href="#C"/><use transform="matrix(0.008173828125000001,0,0,0.008173828125000001,60.51902343750001,0)" xlink:href="#K"/><use transform="matrix(0.008173828125000001,0,0,0.008173828125000001,75.18287109375001,0)" xlink:href="#J"/><use transform="matrix(0.008173828125000001,0,0,0.008173828125000001,84.58277343750001,0)" xlink:href="#I"/><use transform="matrix(0.008173828125000001,0,0,0.008173828125000001,94.84910156250001,0)" xlink:href="#L"/><use transform="matrix(0.008173828125000001,0,0,0.008173828125000001,104.60865234375001,0)" xlink:href="#P"/><use transform="matrix(0.008173828125000001,0,0,0.008173828125000001,112.24300781250001,0)" xlink:href="#M"/><use transform="matrix(0.008173828125000001,0,0,0.008173828125000001,122.14151367187502,0)" xlink:href="#G"/><use transform="matrix(0.008173828125000001,0,0,0.008173828125000001,128.70509765625002,0)" xlink:href="#O"/></g><path d="M975 0v231H0V0h975" id="R"/><path d="M128 0v-1118h300V0H128zm150-1264c-91 0-165-68-165-154 0-85 74-154 165-154 90 0 165 69 165 154 0 86-75 154-165 154" id="S"/><path d="M633 22C291 22 81-200 81-553c0-345 210-579 537-579 292 0 525 185 525 567v84H378c7 183 109 277 260 277 105 0 184-46 216-132l272 51C1071-99 893 22 633 22zM380-669h474c-15-146-94-237-233-237-143 0-229 99-241 237" id="T"/><path d="M128 0v-1118h290v195h12c54-169 184-238 367-200v268c-27-8-86-15-130-15-138 0-239 95-239 234V0H128" id="U"/><g id="l"><use transform="matrix(0.009765625,0,0,0.009765625,0,0)" xlink:href="#w"/><use transform="matrix(0.009765625,0,0,0.009765625,11.201171875,0)" xlink:href="#x"/><use transform="matrix(0.009765625,0,0,0.009765625,23.466796875,0)" xlink:href="#y"/><use transform="matrix(0.009765625,0,0,0.009765625,35.91796875,0)" xlink:href="#z"/><use transform="matrix(0.009765625,0,0,0.009765625,48.5546875,0)" xlink:href="#w"/><use transform="matrix(0.009765625,0,0,0.009765625,59.755859375,0)" xlink:href="#R"/><use transform="matrix(0.009765625,0,0,0.009765625,69.27734375,0)" xlink:href="#w"/><use transform="matrix(0.009765625,0,0,0.009765625,80.478515625,0)" xlink:href="#S"/><use transform="matrix(0.009765625,0,0,0.009765625,85.8984375,0)" xlink:href="#y"/><use transform="matrix(0.009765625,0,0,0.009765625,98.349609375,0)" xlink:href="#z"/><use transform="matrix(0.009765625,0,0,0.009765625,110.986328125,0)" xlink:href="#T"/><use transform="matrix(0.009765625,0,0,0.009765625,122.900390625,0)" xlink:href="#U"/><use transform="matrix(0.009765625,0,0,0.009765625,131.044921875,0)" xlink:href="#w"/></g><path d="M128 359l88-567h206L266 359H128" id="V"/><g id="m"><use transform="matrix(0.008173828125000001,0,0,0.008173828125000001,0,0)" xlink:href="#A"/><use transform="matrix(0.008173828125000001,0,0,0.008173828125000001,10.691367187500001,0)" xlink:href="#B"/><use transform="matrix(0.008173828125000001,0,0,0.008173828125000001,21.9385546875,0)" xlink:href="#V"/></g><path d="M180 0v-1490h901v168H370v510h643v168H370V0H180" id="W"/><g id="n"><use transform="matrix(0.008173828125000001,0,0,0.008173828125000001,0,0)" xlink:href="#W"/><use transform="matrix(0.008173828125000001,0,0,0.008173828125000001,9.882158203125002,0)" xlink:href="#B"/></g><path d="M538 24C308 24 148-78 108-271l171-41c32 123 123 178 257 178 156 0 256-77 256-169 0-77-54-128-164-154l-186-44c-203-48-300-148-300-305 0-192 176-326 414-326 230 0 351 112 402 269l-163 42c-31-80-94-158-238-158-133 0-233 69-233 162 0 83 57 129 188 160l169 40c203 48 298 149 298 302 0 196-179 339-441 339" id="X"/><path d="M613 24c-304 0-509-231-509-576 0-350 205-580 509-580 305 0 511 230 511 580 0 345-206 576-511 576zm0-161c226 0 329-195 329-415 0-222-103-419-329-419-223 0-326 196-326 419 0 220 103 415 326 415" id="Y"/><g id="o"><use transform="matrix(0.008173828125000001,0,0,0.008173828125000001,0,0)" xlink:href="#X"/><use transform="matrix(0.008173828125000001,0,0,0.008173828125000001,8.835908203125001,0)" xlink:href="#Y"/><use transform="matrix(0.008173828125000001,0,0,0.008173828125000001,18.873369140625,0)" xlink:href="#H"/><use transform="matrix(0.008173828125000001,0,0,0.008173828125000001,28.763701171875002,0)" xlink:href="#I"/><use transform="matrix(0.008173828125000001,0,0,0.008173828125000001,39.030029296875,0)" xlink:href="#P"/><use transform="matrix(0.008173828125000001,0,0,0.008173828125000001,47.22837890625,0)" xlink:href="#C"/><use transform="matrix(0.008173828125000001,0,0,0.008173828125000001,51.282597656250005,0)" xlink:href="#D"/></g><g id="p"><use transform="matrix(0.008173828125000001,0,0,0.008173828125000001,0,0)" xlink:href="#X"/><use transform="matrix(0.008173828125000001,0,0,0.008173828125000001,8.835908203125001,0)" xlink:href="#C"/><use transform="matrix(0.008173828125000001,0,0,0.008173828125000001,12.890126953125002,0)" xlink:href="#H"/><use transform="matrix(0.008173828125000001,0,0,0.008173828125000001,22.780458984375002,0)" xlink:href="#I"/><use transform="matrix(0.008173828125000001,0,0,0.008173828125000001,33.046787109375,0)" xlink:href="#L"/><use transform="matrix(0.008173828125000001,0,0,0.008173828125000001,42.806337890625,0)" xlink:href="#G"/><use transform="matrix(0.008173828125000001,0,0,0.008173828125000001,49.108359375000006,0)" xlink:href="#P"/><use transform="matrix(0.008173828125000001,0,0,0.008173828125000001,57.30670898437501,0)" xlink:href="#C"/><use transform="matrix(0.008173828125000001,0,0,0.008173828125000001,61.36092773437501,0)" xlink:href="#D"/></g><g id="q"><use transform="matrix(0.009765625,0,0,0.009765625,0,0)" xlink:href="#w"/><use transform="matrix(0.009765625,0,0,0.009765625,11.201171875,0)" xlink:href="#S"/><use transform="matrix(0.009765625,0,0,0.009765625,16.62109375,0)" xlink:href="#y"/><use transform="matrix(0.009765625,0,0,0.009765625,29.072265625,0)" xlink:href="#z"/><use transform="matrix(0.009765625,0,0,0.009765625,41.708984375,0)" xlink:href="#T"/><use transform="matrix(0.009765625,0,0,0.009765625,53.623046875,0)" xlink:href="#U"/><use transform="matrix(0.009765625,0,0,0.009765625,61.767578125,0)" xlink:href="#w"/></g><path d="M428-1490V0H128v-1490h300" id="Z"/><path d="M120 396l69-226c123 42 245 23 254-107l8-60L31-1118h319c87 288 199 559 259 872 72-308 185-583 277-872h315L726 132c-68 181-186 294-410 294-79 0-153-13-196-30" id="aa"/><path d="M628 22C291 22 81-210 81-554c0-346 210-578 547-578 265 0 455 142 497 372l-279 52c-25-116-99-188-215-188-160 0-244 139-244 341 0 200 84 341 244 341 116 0 193-74 217-195l279 51C1085-123 896 22 628 22" id="ab"/><g id="r"><use transform="matrix(0.009765625,0,0,0.009765625,0,0)" xlink:href="#Z"/><use transform="matrix(0.009765625,0,0,0.009765625,5.625,0)" xlink:href="#aa"/><use transform="matrix(0.009765625,0,0,0.009765625,17.666015625,0)" xlink:href="#U"/><use transform="matrix(0.009765625,0,0,0.009765625,25.95703125,0)" xlink:href="#S"/><use transform="matrix(0.009765625,0,0,0.009765625,31.376953125,0)" xlink:href="#ab"/><use transform="matrix(0.009765625,0,0,0.009765625,43.14453125,0)" xlink:href="#w"/></g><path d="M140 405l46-156c120 36 205 19 263-150l32-93L54-1118h197c107 313 237 620 324 950 87-331 219-637 326-950h196L606 167c-68 178-176 259-334 259-64 0-113-12-132-21" id="ac"/><path d="M613 24c-304 0-509-231-509-576 0-350 205-580 509-580 216 0 392 114 453 309l-173 49c-33-115-133-197-280-197-223 0-326 196-326 419 0 220 103 415 326 415 150 0 252-85 285-206l172 49C1010-95 832 24 613 24" id="ad"/><g id="s"><use transform="matrix(0.008173828125000001,0,0,0.008173828125000001,0,0)" xlink:href="#O"/><use transform="matrix(0.008173828125000001,0,0,0.008173828125000001,4.13595703125,0)" xlink:href="#ac"/><use transform="matrix(0.008173828125000001,0,0,0.008173828125000001,13.544033203125,0)" xlink:href="#G"/><use transform="matrix(0.008173828125000001,0,0,0.008173828125000001,20.1076171875,0)" xlink:href="#C"/><use transform="matrix(0.008173828125000001,0,0,0.008173828125000001,24.1618359375,0)" xlink:href="#ad"/></g><path d="M128 0v-1118h278l12 217c60-163 185-234 319-234 143 0 236 81 288 251 63-172 205-251 359-251 205 0 357 138 357 381V0h-301v-697c0-126-76-187-177-187-114 0-184 79-184 196V0H789v-705c0-109-72-179-174-179-106 0-187 74-187 208V0H128" id="ae"/><path d="M440 22C227 22 68-92 68-313c0-250 202-322 422-343 195-21 271-24 271-105 0-95-63-149-175-149-116 0-187 57-211 129l-275-46c57-194 237-305 487-305 240 0 474 108 474 379V0H777v-155h-10C713-51 605 22 440 22zm85-211c140 0 238-93 238-211v-121c-37 26-156 42-222 51-111 16-185 59-185 149 0 87 70 132 169 132" id="af"/><path d="M683-1118v229H474v562c0 71 29 104 102 104 23 0 73-7 95-13l43 225C647 9 580 16 520 16 296 16 174-96 174-301v-588H20v-229h154v-266h300v266h209" id="ag"/><g id="t"><use transform="matrix(0.009765625,0,0,0.009765625,0,0)" xlink:href="#ae"/><use transform="matrix(0.009765625,0,0,0.009765625,18.251953125,0)" xlink:href="#af"/><use transform="matrix(0.009765625,0,0,0.009765625,29.86328125,0)" xlink:href="#ag"/><use transform="matrix(0.009765625,0,0,0.009765625,36.9921875,0)" xlink:href="#T"/><use transform="matrix(0.009765625,0,0,0.009765625,48.90625,0)" xlink:href="#U"/><use transform="matrix(0.009765625,0,0,0.009765625,57.197265625,0)" xlink:href="#S"/><use transform="matrix(0.009765625,0,0,0.009765625,62.6171875,0)" xlink:href="#af"/><use transform="matrix(0.009765625,0,0,0.009765625,74.228515625,0)" xlink:href="#Z"/><use transform="matrix(0.009765625,0,0,0.009765625,79.6484375,0)" xlink:href="#w"/></g><path d="M481 0L54-1118h197c107 314 236 620 325 951 87-331 217-637 324-951h197L670 0H481" id="ah"/><g id="u"><use transform="matrix(0.008173828125000001,0,0,0.008173828125000001,0,0)" xlink:href="#O"/><use transform="matrix(0.008173828125000001,0,0,0.008173828125000001,4.05421875,0)" xlink:href="#L"/><use transform="matrix(0.008173828125000001,0,0,0.008173828125000001,13.48681640625,0)" xlink:href="#ah"/><use transform="matrix(0.008173828125000001,0,0,0.008173828125000001,22.567939453125,0)" xlink:href="#L"/><use transform="matrix(0.008173828125000001,0,0,0.008173828125000001,32.327490234375,0)" xlink:href="#O"/></g><g id="v"><use transform="matrix(0.008173828125000001,0,0,0.008173828125000001,0,0)" xlink:href="#ad"/><use transform="matrix(0.008173828125000001,0,0,0.008173828125000001,9.563378906250001,0)" xlink:href="#Y"/><use transform="matrix(0.008173828125000001,0,0,0.008173828125000001,19.600839843750002,0)" xlink:href="#H"/><use transform="matrix(0.008173828125000001,0,0,0.008173828125000001,29.491171875000003,0)" xlink:href="#F"/><use transform="matrix(0.008173828125000001,0,0,0.008173828125000001,34.80416015625,0)" xlink:href="#L"/><use transform="matrix(0.008173828125000001,0,0,0.008173828125000001,44.18771484375,0)" xlink:href="#N"/><use transform="matrix(0.008173828125000001,0,0,0.008173828125000001,53.65300781250001,0)" xlink:href="#F"/></g></defs></g></svg>